<mxfile host="65bd71144e">
    <diagram id="HTj2HzXZRO0wpf3ml96P" name="Page-1">
        <mxGraphModel dx="1308" dy="515" grid="1" gridSize="10" guides="1" tooltips="1" connect="1" arrows="1" fold="1" page="1" pageScale="1" pageWidth="850" pageHeight="1100" math="0" shadow="0">
            <root>
                <mxCell id="0"/>
                <mxCell id="1" parent="0"/>
                <mxCell id="2" value="GitHub" style="swimlane;fillColor=#d5e8d4;strokeColor=#82b366;startSize=20;" parent="1" vertex="1">
                    <mxGeometry x="10" y="20" width="200" height="250" as="geometry">
                        <mxRectangle x="10" y="20" width="70" height="20" as="alternateBounds"/>
                    </mxGeometry>
                </mxCell>
                <mxCell id="6" value="eda-gitops-catalog&lt;br&gt;&lt;br&gt;&lt;br&gt;Operators subscriptions" style="rounded=0;whiteSpace=wrap;html=1;verticalAlign=top;fontSize=8;fillColor=#d5e8d4;strokeColor=#82b366;" parent="2" vertex="1">
                    <mxGeometry x="10" y="30" width="180" height="50" as="geometry"/>
                </mxCell>
                <mxCell id="16" style="edgeStyle=none;html=1;fontSize=8;" parent="2" source="7" target="6" edge="1">
                    <mxGeometry relative="1" as="geometry"/>
                </mxCell>
                <mxCell id="7" value="&amp;lt;&amp;gt;-solution-gitops&lt;br&gt;&lt;br&gt;bootstrap- gitops&lt;br&gt;&lt;br&gt;ArgoCD apps&lt;br&gt;&lt;br&gt;environment (namespaces...)&lt;br&gt;&lt;br&gt;Applications deployments&lt;br&gt;&lt;br&gt;Services deployments" style="rounded=0;whiteSpace=wrap;html=1;verticalAlign=top;fontSize=8;fillColor=#d5e8d4;strokeColor=#82b366;" parent="2" vertex="1">
                    <mxGeometry x="10" y="110" width="180" height="130" as="geometry"/>
                </mxCell>
                <mxCell id="3" value="OpenShift Cluster" style="swimlane;fillColor=#f8cecc;strokeColor=#b85450;" parent="1" vertex="1">
                    <mxGeometry x="260" y="20" width="590" height="440" as="geometry"/>
                </mxCell>
                <mxCell id="8" value="&lt;solution&gt;-dev" style="swimlane;fontSize=8;fillColor=#dae8fc;strokeColor=#6c8ebf;" parent="3" vertex="1">
                    <mxGeometry x="10" y="30" width="270" height="210" as="geometry"/>
                </mxCell>
                <mxCell id="23" value="Kafka brokers" style="rounded=0;whiteSpace=wrap;html=1;fontSize=8;strokeColor=none;fillColor=#dae8fc;" parent="8" vertex="1">
                    <mxGeometry x="10" y="30" width="80" height="20" as="geometry"/>
                </mxCell>
                <mxCell id="24" value="MQ manager" style="rounded=0;whiteSpace=wrap;html=1;fontSize=8;strokeColor=none;fillColor=#dae8fc;" parent="8" vertex="1">
                    <mxGeometry x="170" y="30" width="80" height="20" as="geometry"/>
                </mxCell>
                <mxCell id="26" value="schema registry" style="rounded=0;whiteSpace=wrap;html=1;fontSize=8;strokeColor=none;fillColor=#dae8fc;" parent="8" vertex="1">
                    <mxGeometry x="10" y="60" width="80" height="20" as="geometry"/>
                </mxCell>
                <mxCell id="27" value="kafka connector" style="rounded=0;whiteSpace=wrap;html=1;fontSize=8;strokeColor=none;fillColor=#dae8fc;" parent="8" vertex="1">
                    <mxGeometry x="10" y="90" width="80" height="20" as="geometry"/>
                </mxCell>
                <mxCell id="28" value="Mirroring" style="rounded=0;whiteSpace=wrap;html=1;fontSize=8;strokeColor=none;fillColor=#dae8fc;" parent="8" vertex="1">
                    <mxGeometry x="10" y="120" width="80" height="20" as="geometry"/>
                </mxCell>
                <mxCell id="29" value="Event end-point mgr" style="rounded=0;whiteSpace=wrap;html=1;fontSize=8;strokeColor=none;fillColor=#dae8fc;" parent="8" vertex="1">
                    <mxGeometry x="170" y="70" width="80" height="20" as="geometry"/>
                </mxCell>
                <mxCell id="32" value="" style="group" parent="8" vertex="1" connectable="0">
                    <mxGeometry x="60" y="150" width="93" height="35" as="geometry"/>
                </mxCell>
                <mxCell id="25" value="event-driven app" style="rounded=0;whiteSpace=wrap;html=1;fontSize=8;strokeColor=default;fillColor=#dae8fc;" parent="32" vertex="1">
                    <mxGeometry width="80" height="20" as="geometry"/>
                </mxCell>
                <mxCell id="31" value="event-driven app" style="rounded=0;whiteSpace=wrap;html=1;fontSize=8;strokeColor=default;fillColor=#dae8fc;" parent="32" vertex="1">
                    <mxGeometry x="7" y="7" width="80" height="20" as="geometry"/>
                </mxCell>
                <mxCell id="30" value="event-driven app" style="rounded=0;whiteSpace=wrap;html=1;fontSize=8;strokeColor=default;fillColor=#dae8fc;" parent="32" vertex="1">
                    <mxGeometry x="13" y="15" width="80" height="20" as="geometry"/>
                </mxCell>
                <mxCell id="9" value="&lt;solution&gt;-staging" style="swimlane;fontSize=8;fillColor=#dae8fc;strokeColor=#6c8ebf;" parent="3" vertex="1">
                    <mxGeometry x="290" y="30" width="270" height="210" as="geometry"/>
                </mxCell>
                <mxCell id="33" value="Kafka brokers" style="rounded=0;whiteSpace=wrap;html=1;fontSize=8;strokeColor=none;fillColor=#dae8fc;" parent="9" vertex="1">
                    <mxGeometry x="16" y="31" width="80" height="20" as="geometry"/>
                </mxCell>
                <mxCell id="34" value="MQ manager" style="rounded=0;whiteSpace=wrap;html=1;fontSize=8;strokeColor=none;fillColor=#dae8fc;" parent="9" vertex="1">
                    <mxGeometry x="176" y="31" width="80" height="20" as="geometry"/>
                </mxCell>
                <mxCell id="35" value="schema registry" style="rounded=0;whiteSpace=wrap;html=1;fontSize=8;strokeColor=none;fillColor=#dae8fc;" parent="9" vertex="1">
                    <mxGeometry x="16" y="61" width="80" height="20" as="geometry"/>
                </mxCell>
                <mxCell id="36" value="kafka connector" style="rounded=0;whiteSpace=wrap;html=1;fontSize=8;strokeColor=none;fillColor=#dae8fc;" parent="9" vertex="1">
                    <mxGeometry x="16" y="91" width="80" height="20" as="geometry"/>
                </mxCell>
                <mxCell id="37" value="Mirroring" style="rounded=0;whiteSpace=wrap;html=1;fontSize=8;strokeColor=none;fillColor=#dae8fc;" parent="9" vertex="1">
                    <mxGeometry x="16" y="121" width="80" height="20" as="geometry"/>
                </mxCell>
                <mxCell id="38" value="Event end-point mgr" style="rounded=0;whiteSpace=wrap;html=1;fontSize=8;strokeColor=none;fillColor=#dae8fc;" parent="9" vertex="1">
                    <mxGeometry x="176" y="71" width="80" height="20" as="geometry"/>
                </mxCell>
                <mxCell id="39" value="" style="group" parent="9" vertex="1" connectable="0">
                    <mxGeometry x="66" y="151" width="93" height="35" as="geometry"/>
                </mxCell>
                <mxCell id="40" value="event-driven app" style="rounded=0;whiteSpace=wrap;html=1;fontSize=8;strokeColor=default;fillColor=#dae8fc;" parent="39" vertex="1">
                    <mxGeometry width="80" height="20" as="geometry"/>
                </mxCell>
                <mxCell id="41" value="event-driven app" style="rounded=0;whiteSpace=wrap;html=1;fontSize=8;strokeColor=default;fillColor=#dae8fc;" parent="39" vertex="1">
                    <mxGeometry x="7" y="7" width="80" height="20" as="geometry"/>
                </mxCell>
                <mxCell id="42" value="event-driven app" style="rounded=0;whiteSpace=wrap;html=1;fontSize=8;strokeColor=default;fillColor=#dae8fc;" parent="39" vertex="1">
                    <mxGeometry x="13" y="15" width="80" height="20" as="geometry"/>
                </mxCell>
                <mxCell id="11" value="openshift-operators" style="swimlane;fontSize=8;fillColor=#f8cecc;strokeColor=#b85450;" parent="3" vertex="1">
                    <mxGeometry x="10" y="260" width="260" height="150" as="geometry"/>
                </mxCell>
                <mxCell id="43" value="Event streams operator" style="rounded=0;whiteSpace=wrap;html=1;fontSize=8;strokeColor=none;fillColor=#dae8fc;" parent="11" vertex="1">
                    <mxGeometry x="10" y="30" width="80" height="20" as="geometry"/>
                </mxCell>
                <mxCell id="44" value="API Connect operator" style="rounded=0;whiteSpace=wrap;html=1;fontSize=8;strokeColor=none;fillColor=#dae8fc;" parent="11" vertex="1">
                    <mxGeometry x="153" y="30" width="80" height="20" as="geometry"/>
                </mxCell>
                <mxCell id="12" value="openshift-gitops" style="swimlane;fontSize=8;fillColor=#f8cecc;strokeColor=#b85450;" parent="3" vertex="1">
                    <mxGeometry x="290" y="260" width="270" height="70" as="geometry"/>
                </mxCell>
                <mxCell id="47" value="Argocd apps" style="rounded=0;whiteSpace=wrap;html=1;fontSize=8;" parent="12" vertex="1">
                    <mxGeometry x="104" y="35" width="80" height="20" as="geometry"/>
                </mxCell>
                <mxCell id="14" value="Argocd server" style="rounded=0;whiteSpace=wrap;html=1;fontSize=8;" parent="12" vertex="1">
                    <mxGeometry x="10" y="40" width="80" height="20" as="geometry"/>
                </mxCell>
                <mxCell id="19" value="Argocd apps" style="rounded=0;whiteSpace=wrap;html=1;fontSize=8;" parent="12" vertex="1">
                    <mxGeometry x="100" y="40" width="80" height="20" as="geometry"/>
                </mxCell>
                <mxCell id="13" value="openshift-pipelines" style="swimlane;fontSize=8;fillColor=#f8cecc;strokeColor=#b85450;" parent="3" vertex="1">
                    <mxGeometry x="290" y="340" width="270" height="90" as="geometry"/>
                </mxCell>
                <mxCell id="15" value="Tekton server" style="rounded=0;whiteSpace=wrap;html=1;fontSize=8;" parent="13" vertex="1">
                    <mxGeometry x="10" y="40" width="80" height="20" as="geometry"/>
                </mxCell>
                <mxCell id="46" style="edgeStyle=orthogonalEdgeStyle;curved=1;html=1;entryX=0.5;entryY=1;entryDx=0;entryDy=0;fontSize=8;dashed=1;" parent="3" source="19" target="9" edge="1">
                    <mxGeometry relative="1" as="geometry"/>
                </mxCell>
                <mxCell id="4" value="OpenShift Production Cluster" style="swimlane;fillColor=#f8cecc;strokeColor=#b85450;" parent="1" vertex="1">
                    <mxGeometry x="170" y="500" width="650" height="280" as="geometry"/>
                </mxCell>
                <mxCell id="10" value="&lt;solution&gt;-prod" style="swimlane;fontSize=8;fillColor=#dae8fc;strokeColor=#6c8ebf;" parent="4" vertex="1">
                    <mxGeometry x="20" y="40" width="270" height="190" as="geometry"/>
                </mxCell>
                <mxCell id="54" value="event-driven app" style="rounded=0;whiteSpace=wrap;html=1;fontSize=8;strokeColor=default;fillColor=#dae8fc;" vertex="1" parent="10">
                    <mxGeometry x="105" y="120" width="80" height="20" as="geometry"/>
                </mxCell>
                <mxCell id="55" value="event-driven app" style="rounded=0;whiteSpace=wrap;html=1;fontSize=8;strokeColor=default;fillColor=#dae8fc;" vertex="1" parent="10">
                    <mxGeometry x="111" y="125" width="80" height="20" as="geometry"/>
                </mxCell>
                <mxCell id="57" value="event-driven app" style="rounded=0;whiteSpace=wrap;html=1;fontSize=8;strokeColor=default;fillColor=#dae8fc;" vertex="1" parent="10">
                    <mxGeometry x="118" y="130" width="80" height="20" as="geometry"/>
                </mxCell>
                <mxCell id="48" value="Kafka brokers" style="rounded=0;whiteSpace=wrap;html=1;fontSize=8;strokeColor=none;fillColor=#dae8fc;" vertex="1" parent="4">
                    <mxGeometry x="30" y="70" width="80" height="20" as="geometry"/>
                </mxCell>
                <mxCell id="49" value="MQ manager" style="rounded=0;whiteSpace=wrap;html=1;fontSize=8;strokeColor=none;fillColor=#dae8fc;" vertex="1" parent="4">
                    <mxGeometry x="190" y="70" width="80" height="20" as="geometry"/>
                </mxCell>
                <mxCell id="50" value="schema registry" style="rounded=0;whiteSpace=wrap;html=1;fontSize=8;strokeColor=none;fillColor=#dae8fc;" vertex="1" parent="4">
                    <mxGeometry x="30" y="100" width="80" height="20" as="geometry"/>
                </mxCell>
                <mxCell id="51" value="kafka connector" style="rounded=0;whiteSpace=wrap;html=1;fontSize=8;strokeColor=none;fillColor=#dae8fc;" vertex="1" parent="4">
                    <mxGeometry x="30" y="130" width="80" height="20" as="geometry"/>
                </mxCell>
                <mxCell id="52" value="Mirroring" style="rounded=0;whiteSpace=wrap;html=1;fontSize=8;strokeColor=none;fillColor=#dae8fc;" vertex="1" parent="4">
                    <mxGeometry x="30" y="160" width="80" height="20" as="geometry"/>
                </mxCell>
                <mxCell id="53" value="Event end-point mgr" style="rounded=0;whiteSpace=wrap;html=1;fontSize=8;strokeColor=none;fillColor=#dae8fc;" vertex="1" parent="4">
                    <mxGeometry x="190" y="110" width="80" height="20" as="geometry"/>
                </mxCell>
                <mxCell id="58" value="openshift-operators" style="swimlane;fontSize=8;fillColor=#f8cecc;strokeColor=#b85450;" vertex="1" parent="4">
                    <mxGeometry x="350" y="40" width="260" height="60" as="geometry"/>
                </mxCell>
                <mxCell id="59" value="Event streams operator" style="rounded=0;whiteSpace=wrap;html=1;fontSize=8;strokeColor=none;fillColor=#dae8fc;" vertex="1" parent="58">
                    <mxGeometry x="10" y="30" width="80" height="20" as="geometry"/>
                </mxCell>
                <mxCell id="60" value="API Connect operator" style="rounded=0;whiteSpace=wrap;html=1;fontSize=8;strokeColor=none;fillColor=#dae8fc;" vertex="1" parent="58">
                    <mxGeometry x="153" y="30" width="80" height="20" as="geometry"/>
                </mxCell>
                <mxCell id="63" value="openshift-gitops" style="swimlane;fontSize=8;fillColor=#f8cecc;strokeColor=#b85450;" vertex="1" parent="4">
                    <mxGeometry x="350" y="120" width="260" height="70" as="geometry"/>
                </mxCell>
                <mxCell id="64" value="Argocd apps" style="rounded=0;whiteSpace=wrap;html=1;fontSize=8;" vertex="1" parent="63">
                    <mxGeometry x="104" y="35" width="80" height="20" as="geometry"/>
                </mxCell>
                <mxCell id="65" value="Argocd server" style="rounded=0;whiteSpace=wrap;html=1;fontSize=8;" vertex="1" parent="63">
                    <mxGeometry x="10" y="40" width="80" height="20" as="geometry"/>
                </mxCell>
                <mxCell id="66" value="Argocd apps" style="rounded=0;whiteSpace=wrap;html=1;fontSize=8;" vertex="1" parent="63">
                    <mxGeometry x="100" y="40" width="80" height="20" as="geometry"/>
                </mxCell>
                <mxCell id="68" style="edgeStyle=orthogonalEdgeStyle;curved=1;html=1;entryX=1;entryY=0.5;entryDx=0;entryDy=0;dashed=1;" edge="1" parent="4" source="64" target="10">
                    <mxGeometry relative="1" as="geometry"/>
                </mxCell>
                <mxCell id="45" style="edgeStyle=orthogonalEdgeStyle;html=1;entryX=1;entryY=0.5;entryDx=0;entryDy=0;fontSize=8;curved=1;dashed=1;" parent="1" source="19" target="7" edge="1">
                    <mxGeometry relative="1" as="geometry">
                        <Array as="points">
                            <mxPoint x="690" y="360"/>
                            <mxPoint x="220" y="360"/>
                            <mxPoint x="220" y="195"/>
                        </Array>
                    </mxGeometry>
                </mxCell>
                <mxCell id="67" style="edgeStyle=orthogonalEdgeStyle;html=1;entryX=0.5;entryY=1;entryDx=0;entryDy=0;curved=1;dashed=1;" edge="1" parent="1" source="66" target="2">
                    <mxGeometry relative="1" as="geometry">
                        <Array as="points">
                            <mxPoint x="660" y="780"/>
                            <mxPoint x="70" y="780"/>
                            <mxPoint x="70" y="270"/>
                        </Array>
                    </mxGeometry>
                </mxCell>
            </root>
        </mxGraphModel>
    </diagram>
</mxfile>